<svg xmlns="http://www.w3.org/2000/svg" width="1200" height="630" viewBox="0 0 1200 630"><rect width="1200" height="630" fill="#050508"/><rect width="1200" height="3" fill="#22d3ee" opacity="0.6"/><line x1="0" y1="210" x2="1200" y2="210" stroke="#fff" stroke-opacity="0.03"/><line x1="0" y1="420" x2="1200" y2="420" stroke="#fff" stroke-opacity="0.03"/><line x1="400" y1="0" x2="400" y2="630" stroke="#fff" stroke-opacity="0.03"/><line x1="800" y1="0" x2="800" y2="630" stroke="#fff" stroke-opacity="0.03"/><circle cx="140" cy="315" r="42" fill="none" stroke="#22d3ee" stroke-width="2" opacity="0.7"/><circle cx="140" cy="315" r="12" fill="#22d3ee"/><circle cx="235" cy="238" r="20" fill="#fbbf24" opacity="0.85"/><circle cx="235" cy="392" r="20" fill="#ef4444" opacity="0.85"/><circle cx="318" cy="198" r="14" fill="#22c55e" opacity="0.8"/><circle cx="318" cy="432" r="14" fill="#ef4444" opacity="0.75"/><circle cx="318" cy="315" r="14" fill="#818cf8" opacity="0.8"/><line x1="140" y1="315" x2="235" y2="238" stroke="#22d3ee" stroke-opacity="0.35" stroke-width="1.5"/><line x1="140" y1="315" x2="235" y2="392" stroke="#ef4444" stroke-opacity="0.35" stroke-width="1.5"/><line x1="235" y1="238" x2="318" y2="198" stroke="#22c55e" stroke-opacity="0.3" stroke-width="1"/><line x1="235" y1="392" x2="318" y2="432" stroke="#ef4444" stroke-opacity="0.3" stroke-width="1"/><line x1="140" y1="315" x2="318" y2="315" stroke="#818cf8" stroke-opacity="0.2" stroke-width="1"/><text x="400" y="268" font-family="Arial,sans-serif" font-weight="900" font-size="78" fill="white" opacity="0.96">Commodity</text><text x="400" y="362" font-family="Arial,sans-serif" font-weight="900" font-size="78" fill="#22d3ee">Node</text><text x="400" y="428" font-family="Arial,sans-serif" font-size="28" fill="#71717a">Where Raw Materials Meet Markets</text><rect width="1200" height="2" y="628" fill="#22d3ee" opacity="0.35"/></svg>